<?xml version="1.0" encoding="UTF-8" standalone="no"?>
<svg width="800" height="600" xmlns="http://www.w3.org/2000/svg">
  <!-- Fondo blanco -->
  <rect width="800" height="600" fill="#f8f9fa" />
  
  <!-- Escena de bodegón/mesa -->
  
  <!-- Mesa -->
  <rect x="50" y="350" width="700" height="20" fill="#774936" />
  <rect x="100" y="370" width="20" height="200" fill="#774936" />
  <rect x="680" y="370" width="20" height="200" fill="#774936" />
  
  <!-- Florero azul -->
  <path d="M320,350 C320,320 300,300 300,270 C300,230 340,230 340,270 C340,300 320,320 320,350" fill="#457b9d" />
  
  <!-- Flores en el florero -->
  <line x1="320" y1="270" x2="320" y2="220" stroke="#2a9d8f" stroke-width="3" />
  <circle cx="320" cy="210" r="15" fill="#2a9d8f" />
  
  <line x1="330" y1="270" x2="350" y2="230" stroke="#2a9d8f" stroke-width="3" />
  <circle cx="355" cy="225" r="15" fill="#2a9d8f" />
  
  <line x1="310" y1="270" x2="290" y2="230" stroke="#2a9d8f" stroke-width="3" />
  <circle cx="285" cy="225" r="15" fill="#2a9d8f" />
  
  <!-- Libro amarillo -->
  <rect x="400" y="310" width="150" height="40" fill="#ffb703" />
  <rect x="400" y="300" width="150" height="10" fill="#fd9e02" />
  
  <!-- Taza verde -->
  <path d="M200,350 C190,340 190,320 200,310 C210,300 230,300 240,310 C250,320 250,340 240,350" fill="#2a9d8f" />
  <path d="M240,330 C260,330 260,315 250,315" stroke="#2a9d8f" stroke-width="8" fill="none" />
  
  <!-- ELEMENTO ROJO 1: Manzana -->
  <circle cx="600" cy="320" r="30" fill="#e63946" />
  <line x1="600" y1="290" x2="610" y2="270" stroke="#52796f" stroke-width="3" />
  
  <!-- ELEMENTO ROJO 2: Pañuelo -->
  <path d="M100,300 C130,280 170,290 150,320 C130,340 90,330 100,300" fill="#e63946" />
  
  <!-- Caja azul -->
  <rect x="450" y="200" width="100" height="80" fill="#457b9d" />
  <rect x="450" y="200" width="100" height="20" fill="#1d3557" />
  
  <!-- Botella verde -->
  <rect x="150" y="250" width="30" height="100" fill="#2d6a4f" rx="5" ry="5" />
  <rect x="150" y="230" width="30" height="20" fill="#2d6a4f" rx="10" ry="10" />
  
  <!-- Frutero amarillo con frutas verdes -->
  <ellipse cx="650" cy="250" rx="50" ry="20" fill="#ffb703" />
  <circle cx="630" cy="240" r="12" fill="#52b788" />
  <circle cx="650" cy="235" r="12" fill="#52b788" />
  <circle cx="670" cy="240" r="12" fill="#52b788" />
</svg> 