<?xml version="1.0" encoding="UTF-8" standalone="no"?>
<svg width="800" height="600" xmlns="http://www.w3.org/2000/svg">
  <!-- Fondo neutro -->
  <rect width="800" height="600" fill="#f8f9fa" />
  
  <!-- Rectángulo verde en la esquina superior izquierda -->
  <rect x="0" y="0" width="390" height="290" fill="#2a9d8f" />
  
  <!-- Rectángulo rojo en la esquina inferior izquierda -->
  <rect x="0" y="300" width="390" height="300" fill="#e63946" />
  
  <!-- Rectángulo amarillo en la esquina inferior derecha -->
  <rect x="400" y="300" width="400" height="300" fill="#ffb703" />
  
  <!-- Rectángulo AZUL en la esquina superior derecha (predominante en esa zona) -->
  <rect x="400" y="0" width="400" height="290" fill="#1e3a8a" />
  
  <!-- Elementos azules adicionales en la esquina superior derecha para enfatizar -->
  <circle cx="600" cy="100" r="60" fill="#3b82f6" />
  <rect x="500" y="150" width="120" height="80" fill="#60a5fa" rx="10" ry="10" />
  <polygon points="700,50 750,100 700,150" fill="#93c5fd" />
  <circle cx="700" cy="200" r="30" fill="#bfdbfe" />
  
  <!-- Algunos elementos pequeños para añadir detalle -->
  <rect x="50" y="50" width="40" height="40" fill="#f4a261" rx="5" ry="5" />
  <circle cx="200" cy="150" r="25" fill="#a8dadc" />
  <polygon points="50,400 100,350 150,400 100,450" fill="#e9c46a" />
  <rect x="600" y="400" width="80" height="80" fill="#9d4edd" rx="5" ry="5" />
</svg> 